<svg width="50" height="50" viewBox="0 0 50 50" fill="none" xmlns="http://www.w3.org/2000/svg">
<path d="M32.4219 26.5625C32.4219 26.8733 32.2984 27.1714 32.0786 27.3911C31.8589 27.6109 31.5608 27.7344 31.25 27.7344H26.1719V32.8125C26.1719 33.1233 26.0484 33.4214 25.8286 33.6411C25.6089 33.8609 25.3108 33.9844 25 33.9844C24.6892 33.9844 24.3911 33.8609 24.1714 33.6411C23.9516 33.4214 23.8281 33.1233 23.8281 32.8125V27.7344H18.75C18.4392 27.7344 18.1411 27.6109 17.9214 27.3911C17.7016 27.1714 17.5781 26.8733 17.5781 26.5625C17.5781 26.2517 17.7016 25.9536 17.9214 25.7339C18.1411 25.5141 18.4392 25.3906 18.75 25.3906H23.8281V20.3125C23.8281 20.0017 23.9516 19.7036 24.1714 19.4839C24.3911 19.2641 24.6892 19.1406 25 19.1406C25.3108 19.1406 25.6089 19.2641 25.8286 19.4839C26.0484 19.7036 26.1719 20.0017 26.1719 20.3125V25.3906H31.25C31.5608 25.3906 31.8589 25.5141 32.0786 25.7339C32.2984 25.9536 32.4219 26.2517 32.4219 26.5625ZM44.9219 15.625V37.5C44.9219 38.6396 44.4692 39.7325 43.6633 40.5383C42.8575 41.3442 41.7646 41.7969 40.625 41.7969H9.375C8.2354 41.7969 7.14247 41.3442 6.33665 40.5383C5.53083 39.7325 5.07813 38.6396 5.07812 37.5V15.625C5.07812 14.4854 5.53083 13.3925 6.33665 12.5867C7.14247 11.7808 8.2354 11.3281 9.375 11.3281H14.998L17.3105 7.85742C17.5604 7.48299 17.8988 7.17601 18.2957 6.96375C18.6926 6.75149 19.1358 6.64049 19.5859 6.64063H30.4141C30.8642 6.64049 31.3074 6.75149 31.7043 6.96375C32.1012 7.17601 32.4396 7.48299 32.6895 7.85742L35.002 11.3281H40.625C41.7646 11.3281 42.8575 11.7808 43.6633 12.5867C44.4692 13.3925 44.9219 14.4854 44.9219 15.625ZM42.5781 15.625C42.5781 15.107 42.3724 14.6102 42.0061 14.2439C41.6398 13.8777 41.143 13.6719 40.625 13.6719H34.375C34.1819 13.6722 33.9916 13.6247 33.8213 13.5337C33.6509 13.4427 33.5056 13.3111 33.3984 13.1504L30.7383 9.1582C30.7027 9.10483 30.6545 9.06105 30.5979 9.03073C30.5414 9.00042 30.4782 8.98449 30.4141 8.98438H19.5859C19.5218 8.98449 19.4586 9.00042 19.4021 9.03073C19.3455 9.06105 19.2973 9.10483 19.2617 9.1582L16.6016 13.1504C16.4944 13.3111 16.3491 13.4427 16.1787 13.5337C16.0084 13.6247 15.8181 13.6722 15.625 13.6719H9.375C8.857 13.6719 8.36021 13.8777 7.99393 14.2439C7.62765 14.6102 7.42188 15.107 7.42188 15.625V37.5C7.42188 38.018 7.62765 38.5148 7.99393 38.8811C8.36021 39.2474 8.857 39.4531 9.375 39.4531H40.625C41.143 39.4531 41.6398 39.2474 42.0061 38.8811C42.3724 38.5148 42.5781 38.018 42.5781 37.5V15.625Z" fill="#72635A"/>
</svg>
